<svg xmlns="http://www.w3.org/2000/svg" width="35.76" height="31.372" viewBox="0 0 35.76 31.372">
  <g id="mission-5232670" transform="translate(-98.02 -59.04)">
    <path id="Path_107" data-name="Path 107" d="M116.207,78.454c-5.4,5.4-6.352,6.412-6.383,6.372.142-.132-.148.51,3.3-8.018h0c.31.166-.029-.016,3.079,1.646Zm-10.221,5.157c-.345-.074.256-.459-7.541,5.919h0a.5.5,0,1,0,.628.769L106.2,84.47a.486.486,0,0,0-.213-.859Zm.539-4.552c-.242,0,.24-.318-6.134,4.639a.5.5,0,1,0,.609.785l5.831-4.534a.5.5,0,0,0-.306-.889Zm2.522,5.568,23.8-23.622c-7.342,5.818-8.86,6.961-19.069,15.036l10.845,5.818c4.889-12.4,6.527-16.512,8.225-20.854ZM112.533,75.78c-.063.062-.024.017-.1.146-.437,1.086.08-.2-3.376,8.353h0a.48.48,0,0,0,0,.346h0c-.119-.316-.563-2.4-2.013-8.669l-8.557-.65a.5.5,0,0,1-.159-.95C139.418,56.6,133,59.377,133.779,59.04c.13-.129-21.2,16.691-21.246,16.74Z" transform="translate(0 0)" fill="#343434"/>
  </g>
</svg>
