<svg xmlns="http://www.w3.org/2000/svg" width="19.379" height="19.416" viewBox="0 0 19.379 19.416">
  <path id="Icon_feather-phone" data-name="Icon feather-phone" d="M21.545,16.786v2.772a1.848,1.848,0,0,1-2.014,1.848,18.286,18.286,0,0,1-7.974-2.837,18.018,18.018,0,0,1-5.544-5.544A18.286,18.286,0,0,1,3.175,5.014,1.848,1.848,0,0,1,5.014,3H7.786A1.848,1.848,0,0,1,9.634,4.589a11.864,11.864,0,0,0,.647,2.6,1.848,1.848,0,0,1-.416,1.95L8.692,10.309a14.784,14.784,0,0,0,5.544,5.544l1.174-1.174a1.848,1.848,0,0,1,1.95-.416,11.864,11.864,0,0,0,2.6.647,1.848,1.848,0,0,1,1.589,1.876Z" transform="translate(-2.667 -2.5)" fill="none" stroke="#fff" stroke-linecap="round" stroke-linejoin="round" stroke-width="1"/>
</svg>
